custom-analysis
version=1
nRows=4
nColumns=98
inDegrees=no

This file contains tibia displacement and acting force.

Units are S.I. units (seconds, meters, Newtons, ...)
Angles are in degrees.

endheader
time	APT	SIT	knee_angle	aACL_R_force	pACL_R_force	aPCL_R_force	pPCL_R_force	aMCL_R_force	mMCL_R_force	pMCL_R_force	aLCL_R_force	mLCL_R_force	pLCL_R_force	aPCL_L_force	pPCL_L_force	aMCL_L_force	aLCL_L_force	aACL_R_length	pACL_R_length	aPCL_R_length	pPCL_R_length	aMCL_R_length	mMCL_R_length	pMCL_R_length	aLCL_R_length	mLCL_R_length	pLCL_R_length	aPCL_L_length	pPCL_L_length	aMCL_L_length	aLCL_L_length	aACL_R_strain	pACL_R_strain	aPCL_R_strain	pPCL_R_strain	aMCL_R_strain	mMCL_R_strain	pMCL_R_strain	aLCL_R_strain	mLCL_R_strain	pLCL_R_strain	aPCL_L_strain	pPCL_L_strain	aMCL_L_strain	aLCL_L_strain	femur_lat_meniscii_r.femur_lat_r.force.X	femur_lat_meniscii_r.femur_lat_r.force.Y	femur_lat_meniscii_r.femur_lat_r.force.Z	femur_lat_meniscii_r.femur_lat_r.torque.X	femur_lat_meniscii_r.femur_lat_r.torque.Y	femur_lat_meniscii_r.femur_lat_r.torque.Z	femur_lat_meniscii_r.meniscus_lat_r.force.X	femur_lat_meniscii_r.meniscus_lat_r.force.Y	femur_lat_meniscii_r.meniscus_lat_r.force.Z	femur_lat_meniscii_r.meniscus_lat_r.torque.X	femur_lat_meniscii_r.meniscus_lat_r.torque.Y	femur_lat_meniscii_r.meniscus_lat_r.torque.Z	femur_med_meniscii_r.femur_med_r.force.X	femur_med_meniscii_r.femur_med_r.force.Y	femur_med_meniscii_r.femur_med_r.force.Z	femur_med_meniscii_r.femur_med_r.torque.X	femur_med_meniscii_r.femur_med_r.torque.Y	femur_med_meniscii_r.femur_med_r.torque.Z	femur_med_meniscii_r.meniscus_med_r.force.X	femur_med_meniscii_r.meniscus_med_r.force.Y	femur_med_meniscii_r.meniscus_med_r.force.Z	femur_med_meniscii_r.meniscus_med_r.torque.X	femur_med_meniscii_r.meniscus_med_r.torque.Y	femur_med_meniscii_r.meniscus_med_r.torque.Z	femur_med_tibia_r.tibia_upper_r.force.X	femur_med_tibia_r.tibia_upper_r.force.Y	femur_med_tibia_r.tibia_upper_r.force.Z	femur_med_tibia_r.tibia_upper_r.torque.X	femur_med_tibia_r.tibia_upper_r.torque.Y	femur_med_tibia_r.tibia_upper_r.torque.Z	femur_med_tibia_r.femur_med_r.force.X	femur_med_tibia_r.femur_med_r.force.Y	femur_med_tibia_r.femur_med_r.force.Z	femur_med_tibia_r.femur_med_r.torque.X	femur_med_tibia_r.femur_med_r.torque.Y	femur_med_tibia_r.femur_med_r.torque.Z	femur_lat_tibia_r.tibia_upper_r.force.X	femur_lat_tibia_r.tibia_upper_r.force.Y	femur_lat_tibia_r.tibia_upper_r.force.Z	femur_lat_tibia_r.tibia_upper_r.torque.X	femur_lat_tibia_r.tibia_upper_r.torque.Y	femur_lat_tibia_r.tibia_upper_r.torque.Z	femur_lat_tibia_r.femur_lat_r.force.X	femur_lat_tibia_r.femur_lat_r.force.Y	femur_lat_tibia_r.femur_lat_r.force.Z	femur_lat_tibia_r.femur_lat_r.torque.X	femur_lat_tibia_r.femur_lat_r.torque.Y	femur_lat_tibia_r.femur_lat_r.torque.Z	femur_lat_meniscii_force_r	femur_med_meniscii_force_r	femur_lat_tibia_force_r	femur_med_tibia_force_r
      0.47622586	      0.00633648	     -0.00043626	     60.00037120	     77.68620077	     17.29122107	    290.02515069	     54.51525170	      5.68150504	      1.89224871	      0.00000000	      0.00000000	      0.00000000	      0.00000000	      0.00000000	      0.00000000	      0.00000001	      0.00000000	      0.03416404	      0.02626993	      0.03344309	      0.03056053	      0.06167087	      0.06059737	      0.05723037	      0.05131965	      0.04642018	      0.04132124	      0.01525851	      0.01651186	      0.06550154	      0.04489616	      0.10187046	      0.04833571	      0.07550302	      0.02250848	      0.02738546	      0.01344405	     -0.02550105	     -0.08320433	     -0.17575759	     -0.21056338	      0.00000079	     -0.32847694	      0.00000060	     -0.00000086	    182.23093252	     99.74900694	     31.14714732	    -15.14533154	      4.56039416	     74.47772015	   -182.23093252	    -99.74900694	    -31.14714732	      3.43067132	     -6.19923812	     -0.69097846	    126.86591824	     16.47540897	    -10.62979830	      4.64157267	     -2.52297077	     51.56152356	   -126.86591824	    -16.47540897	     10.62979830	     -0.39497597	      2.15169991	     -1.45412402	   -110.42684343	    -49.50255922	      8.49153123	     -0.76824098	      1.60897022	     -0.60426766	    110.42684343	     49.50255922	     -8.49153123	      4.33947945	     -1.95025521	     45.05633415	      0.00000000	      0.00000000	      0.00000000	      0.00000000	      0.00000000	      0.00000000	      0.00000000	      0.00000000	      0.00000000	      0.00000000	      0.00000000	      0.00000000	    210.06694632	    128.37208779	      0.00000000	    121.31239517
      0.47841016	      0.00633807	     -0.00043534	     60.00037120	     77.83995837	     17.47064486	    289.69234280	     54.15661914	      5.53765391	      1.72639505	      0.00000000	      0.00000000	      0.00000000	      0.00000000	      0.00000000	      0.00000000	      0.00000001	      0.00000000	      0.03416381	      0.02626921	      0.03344147	      0.03055926	      0.06167238	      0.06059886	      0.05723186	      0.05131559	      0.04641610	      0.04131713	      0.01525851	      0.01651186	      0.06550154	      0.04489616	      0.10186297	      0.04830700	      0.07545107	      0.02246600	      0.02741060	      0.01346896	     -0.02547574	     -0.08327687	     -0.17582999	     -0.21064196	      0.00000079	     -0.32847694	      0.00000060	     -0.00000086	    182.67079675	     99.78309039	     30.60687072	    -14.92211387	      4.56461297	     74.66025184	   -182.67079675	    -99.78309039	    -30.60687072	      3.41955516	     -6.19327555	     -0.69991236	    126.93500419	     16.41170654	    -11.19767833	      4.87303982	     -2.53067782	     51.59070455	   -126.93500419	    -16.41170654	     11.19767833	     -0.40416371	      2.17228415	     -1.45754841	   -110.22833406	    -49.39402391	      8.58285759	     -0.76866419	      1.60938677	     -0.60360732	    110.22833406	     49.39402391	     -8.58285759	      4.37529565	     -1.94778940	     44.97553194	      0.00000000	      0.00000000	      0.00000000	      0.00000000	      0.00000000	      0.00000000	      0.00000000	      0.00000000	      0.00000000	      0.00000000	      0.00000000	      0.00000000	    210.38551673	    128.48045533	      0.00000000	    121.09385068
      0.48059447	      0.00633970	     -0.00043501	     60.00037120	     77.94425513	     17.56823153	    289.56959535	     54.18617507	      5.56448850	      1.74287063	      0.00000000	      0.00000000	      0.00000000	      0.00000000	      0.00000000	      0.00000000	      0.00000001	      0.00000000	      0.03416429	      0.02626930	      0.03344037	      0.03055843	      0.06167407	      0.06060051	      0.05723348	      0.05131264	      0.04641312	      0.04131410	      0.01525851	      0.01651186	      0.06550154	      0.04489616	      0.10187853	      0.04831041	      0.07541568	      0.02243818	      0.02743877	      0.01349657	     -0.02544812	     -0.08332973	     -0.17588285	     -0.21069989	      0.00000079	     -0.32847694	      0.00000060	     -0.00000086	    182.75756213	     99.79493876	     30.57190770	    -14.90794160	      4.56642866	     74.69669829	   -182.75756213	    -99.79493876	    -30.57190770	      3.41934402	     -6.19518584	     -0.70164928	    126.83718508	     16.30735951	    -11.27008149	      4.90059986	     -2.52938195	     51.55212444	   -126.83718508	    -16.30735951	     11.27008149	     -0.40380444	      2.17288586	     -1.45955289	   -109.54424638	    -49.10668688	      8.74485112	     -0.76852964	      1.60648120	     -0.59891200	    109.54424638	     49.10668688	     -8.74485112	      4.43736619	     -1.93792405	     44.69616065	      0.00000000	      0.00000000	      0.00000000	      0.00000000	      0.00000000	      0.00000000	      0.00000000	      0.00000000	      0.00000000	      0.00000000	      0.00000000	      0.00000000	    210.46139279	    128.37685239	      0.00000000	    120.36561400
      0.48409311	      0.00634238	     -0.00043480	     60.00037120	     78.01102657	     17.60002128	    289.33293944	     54.01443701	      5.39703818	      1.56001252	      0.00000000	      0.00000000	      0.00000000	      0.00000000	      0.00000000	      0.00000000	      0.00000001	      0.00000000	      0.03416551	      0.02626996	      0.03343894	      0.03055729	      0.06167630	      0.06060264	      0.05723555	      0.05130933	      0.04640980	      0.04131066	      0.01525851	      0.01651186	      0.06550154	      0.04489616	      0.10191783	      0.04833704	      0.07536952	      0.02240008	      0.02747592	      0.01353218	     -0.02541292	     -0.08338879	     -0.17594192	     -0.21076555	      0.00000079	     -0.32847694	      0.00000060	     -0.00000086	    182.89298008	     99.86970438	     30.73468307	    -14.97687233	      4.57131525	     74.75303614	   -182.89298008	    -99.86970438	    -30.73468307	      3.42507948	     -6.20523178	     -0.70247327	    126.85323406	     16.27724876	    -11.23587609	      4.88622163	     -2.52905817	     51.55923226	   -126.85323406	    -16.27724876	     11.23587609	     -0.40289763	      2.17129513	     -1.46071337	   -108.73407040	    -48.73011166	      8.67510562	     -0.76240034	      1.59409595	     -0.59455207	    108.73407040	     48.73011166	     -8.67510562	      4.40222422	     -1.92352960	     44.36572255	      0.00000000	      0.00000000	      0.00000000	      0.00000000	      0.00000000	      0.00000000	      0.00000000	      0.00000000	      0.00000000	      0.00000000	      0.00000000	      0.00000000	    210.63812750	    128.38588992	      0.00000000	    119.46957481
